<svg width="30" height="30" viewBox="0 0 30 30" fill="none" xmlns="http://www.w3.org/2000/svg">
<path id="Vector" d="M15.0005 0C23.285 0 30.0005 6.7155 30.0005 15C30.0005 23.2845 23.285 30 15.0005 30C12.3497 30.0043 9.74549 29.3027 7.4555 27.9675L0.00650938 30L2.03451 22.548C0.698149 20.2573 -0.00391928 17.652 0.000509102 15C0.000509102 6.7155 6.71601 0 15.0005 0ZM9.8885 7.95L9.5885 7.962C9.39429 7.97382 9.20447 8.02485 9.0305 8.11199C8.86778 8.20414 8.71925 8.31933 8.5895 8.45399C8.4095 8.6235 8.3075 8.77049 8.198 8.91299C7.64319 9.63435 7.34446 10.52 7.349 11.43C7.352 12.165 7.544 12.8805 7.844 13.5495C8.4575 14.9025 9.467 16.335 10.799 17.6625C11.12 17.982 11.435 18.303 11.774 18.6015C13.4291 20.0587 15.4014 21.1095 17.534 21.6705L18.386 21.801C18.6635 21.816 18.941 21.795 19.22 21.7815C19.6569 21.7589 20.0834 21.6406 20.4695 21.435C20.6659 21.3338 20.8576 21.2237 21.044 21.105C21.044 21.105 21.1085 21.063 21.2315 20.97C21.434 20.82 21.5585 20.7135 21.7265 20.538C21.851 20.409 21.959 20.2575 22.0415 20.085C22.1585 19.8405 22.2755 19.374 22.3235 18.9855C22.3595 18.6885 22.349 18.5265 22.3445 18.426C22.3385 18.2655 22.205 18.099 22.0595 18.0285L21.1865 17.637C21.1865 17.637 19.8815 17.0685 19.0835 16.7055C19 16.669 18.9105 16.6482 18.8195 16.644C18.7169 16.6334 18.6132 16.645 18.5154 16.6779C18.4176 16.7107 18.3279 16.7641 18.2525 16.8345C18.245 16.8315 18.1445 16.917 17.06 18.231C16.9978 18.3146 16.912 18.3778 16.8137 18.4126C16.7154 18.4473 16.609 18.452 16.508 18.426C16.4103 18.3998 16.3145 18.3667 16.2215 18.327C16.0355 18.249 15.971 18.219 15.8435 18.165C14.9826 17.7893 14.1855 17.2817 13.481 16.6605C13.292 16.4955 13.1165 16.3155 12.9365 16.1415C12.3464 15.5763 11.8321 14.937 11.4065 14.2395L11.318 14.097C11.2544 14.0012 11.203 13.8979 11.165 13.7895C11.108 13.569 11.2565 13.392 11.2565 13.392C11.2565 13.392 11.621 12.993 11.7905 12.777C11.9555 12.567 12.095 12.363 12.185 12.2175C12.362 11.9325 12.4175 11.64 12.3245 11.4135C11.9045 10.3875 11.4695 9.36599 11.0225 8.35199C10.934 8.15099 10.6715 8.00699 10.433 7.97849C10.352 7.96949 10.271 7.96049 10.19 7.95449C9.98856 7.94449 9.78671 7.94649 9.5855 7.9605L9.887 7.94849L9.8885 7.95Z" fill="white"/>
</svg>
