<svg width="32" height="23" viewBox="0 0 32 23" fill="none" xmlns="http://www.w3.org/2000/svg">
<path id="Vector" d="M28.043 4.03491L16 13.1318L3.95699 4.03491M2.5361 1.02365C2.1287 1.02365 1.73799 1.18975 1.44991 1.48542C1.16184 1.78108 1 2.18209 1 2.60023V20.4234C1 20.8416 1.16184 21.2426 1.44991 21.5382C1.73799 21.8339 2.1287 22 2.5361 22H29.4639C29.8713 22 30.262 21.8339 30.5501 21.5382C30.8382 21.2426 31 20.8416 31 20.4234V2.57658C31 2.15844 30.8382 1.75743 30.5501 1.46177C30.262 1.1661 29.8713 1 29.4639 1H2.5361V1.02365Z" stroke="white" stroke-linecap="round" stroke-linejoin="round"/>
</svg>
