<svg width="28" height="38" viewBox="0 0 28 38" fill="none" xmlns="http://www.w3.org/2000/svg">
<path id="Vector" d="M14 8.44443C12.8133 8.44443 11.6533 8.81587 10.6666 9.51179C9.67988 10.2077 8.91085 11.1968 8.45672 12.3541C8.0026 13.5114 7.88378 14.7848 8.11529 16.0133C8.3468 17.2419 8.91825 18.3704 9.75736 19.2561C10.5965 20.1418 11.6656 20.745 12.8295 20.9894C13.9933 21.2338 15.1997 21.1083 16.2961 20.629C17.3925 20.1496 18.3295 19.3379 18.9888 18.2964C19.6481 17.2548 20 16.0304 20 14.7778C20 13.0981 19.3679 11.4871 18.2426 10.2994C17.1174 9.11169 15.5913 8.44443 14 8.44443ZM14 19.7037C13.077 19.7037 12.1748 19.4148 11.4073 18.8735C10.6399 18.3322 10.0418 17.5629 9.68856 16.6628C9.33535 15.7627 9.24294 14.7723 9.423 13.8168C9.60307 12.8612 10.0475 11.9835 10.7002 11.2946C11.3528 10.6057 12.1843 10.1366 13.0896 9.94648C13.9948 9.75642 14.9331 9.85397 15.7859 10.2268C16.6386 10.5996 17.3674 11.231 17.8802 12.0411C18.393 12.8511 18.6667 13.8035 18.6667 14.7778C18.6667 15.4246 18.546 16.0652 18.3114 16.6628C18.0769 17.2605 17.7332 17.8035 17.2998 18.2609C16.8665 18.7183 16.352 19.0812 15.7859 19.3287C15.2197 19.5763 14.6128 19.7037 14 19.7037ZM14 0C10.2882 0.00419114 6.72954 1.56247 4.10489 4.33293C1.48024 7.10339 0.00397056 10.8597 0 14.7778C0 20.1294 2.36167 25.8241 6.83333 31.2479C8.85626 33.7153 11.1331 35.9375 13.6217 37.8733C13.7336 37.9558 13.8668 38 14.0033 38C14.1398 38 14.2731 37.9558 14.385 37.8733C16.8713 35.9371 19.1458 33.7149 21.1667 31.2479C25.635 25.8241 28 20.1294 28 14.7778C27.996 10.8597 26.5198 7.10339 23.8951 4.33293C21.2705 1.56247 17.7118 0.00419114 14 0ZM20.1833 30.2997C18.3207 32.5513 16.2493 34.6005 14 36.4166C11.7504 34.5983 9.67893 32.5467 7.81667 30.2926C4.85833 26.7055 1.33333 21.0935 1.33333 14.7778C1.33333 11.2317 2.66785 7.83091 5.04331 5.32349C7.41878 2.81606 10.6406 1.4074 14 1.4074C17.3594 1.4074 20.5812 2.81606 22.9567 5.32349C25.3321 7.83091 26.6667 11.2317 26.6667 14.7778C26.6667 21.0935 23.1417 26.7055 20.1833 30.2997Z" fill="white"/>
</svg>
