<svg width="25" height="24" viewBox="0 0 25 24" fill="none" xmlns="http://www.w3.org/2000/svg">
<path id="Vector" d="M23.7964 15.6521L17.9076 13.2348L17.8914 13.2279C17.5857 13.1081 17.2522 13.06 16.9211 13.088C16.59 13.116 16.2717 13.2192 15.9951 13.3882C15.9626 13.4079 15.9313 13.4293 15.9014 13.4523L12.8589 15.8285C10.9313 14.9708 8.94133 13.1615 8.00507 11.4186L10.6026 8.58894C10.6276 8.56031 10.6513 8.53168 10.6738 8.50077C10.8544 8.24804 10.9639 7.95834 10.9927 7.65746C11.0215 7.35658 10.9686 7.05384 10.8388 6.77619V6.76245L8.19257 1.35856C8.02099 0.995856 7.72597 0.693713 7.35155 0.497235C6.97712 0.300756 6.54337 0.220481 6.11506 0.268393C4.42126 0.472578 2.86651 1.23462 1.74119 2.41219C0.615875 3.58977 -0.00305119 5.10234 1.13109e-05 6.6674C1.13109e-05 15.7598 8.07507 23.1573 18.0001 23.1573C19.7085 23.1601 21.3596 22.5931 22.6451 21.5622C23.9305 20.5313 24.7623 19.107 24.9852 17.5553C25.0376 17.1631 24.9501 16.7658 24.7359 16.4228C24.5217 16.0798 24.1921 15.8095 23.7964 15.6521ZM18.0001 21.3251C13.7581 21.3209 9.69107 19.7752 6.69147 17.0273C3.69187 14.2794 2.00466 10.5536 2.00003 6.6674C1.99532 5.54917 2.43509 4.4676 3.23721 3.62468C4.03932 2.78175 5.14893 2.23512 6.35881 2.08687C6.35831 2.09144 6.35831 2.09604 6.35881 2.10061L8.98383 7.48274L6.40006 10.3158C6.37383 10.3434 6.35001 10.3729 6.32881 10.404C6.1407 10.6684 6.03035 10.9729 6.00845 11.2879C5.98655 11.6029 6.05384 11.9177 6.20381 12.2018C7.33631 14.3238 9.67008 16.4457 12.0113 17.4821C12.3238 17.6182 12.6695 17.6777 13.0145 17.6548C13.3596 17.6319 13.6923 17.5274 13.9801 17.3515C14.0122 17.3317 14.0431 17.3103 14.0726 17.2874L17.1114 14.9124L22.9864 17.3229H23.0002C22.8403 18.4328 22.2445 19.4514 21.3242 20.188C20.4039 20.9247 19.2222 21.3289 18.0001 21.3251Z" fill="white"/>
</svg>
