<svg width="25" height="21" viewBox="0 0 25 21" fill="none" xmlns="http://www.w3.org/2000/svg">
<path id="Vector" d="M23.4375 20.4091C23.4375 20.4091 25 20.4091 25 18.7295C25 17.05 23.4375 12.0115 17.1875 12.0115C10.9375 12.0115 9.375 17.05 9.375 18.7295C9.375 20.4091 10.9375 20.4091 10.9375 20.4091H23.4375ZM10.9719 18.7295C10.9603 18.7278 10.9489 18.7256 10.9375 18.7228C10.9391 18.2794 11.1984 16.9929 12.125 15.8341C12.9875 14.7474 14.5031 13.691 17.1875 13.691C19.8703 13.691 21.3859 14.7491 22.25 15.8341C23.1766 16.9929 23.4344 18.2811 23.4375 18.7228L23.425 18.7262C23.4177 18.7275 23.4104 18.7286 23.4031 18.7295H10.9719ZM17.1875 8.65245C18.0163 8.65245 18.8112 8.29856 19.3972 7.66862C19.9833 7.03868 20.3125 6.1843 20.3125 5.29343C20.3125 4.40256 19.9833 3.54817 19.3972 2.91823C18.8112 2.28829 18.0163 1.9344 17.1875 1.9344C16.3587 1.9344 15.5638 2.28829 14.9778 2.91823C14.3917 3.54817 14.0625 4.40256 14.0625 5.29343C14.0625 6.1843 14.3917 7.03868 14.9778 7.66862C15.5638 8.29856 16.3587 8.65245 17.1875 8.65245ZM21.875 5.29343C21.875 5.9551 21.7538 6.61029 21.5182 7.22159C21.2826 7.8329 20.9373 8.38834 20.5021 8.85621C20.0668 9.32409 19.55 9.69522 18.9813 9.94843C18.4126 10.2016 17.8031 10.332 17.1875 10.332C16.5719 10.332 15.9624 10.2016 15.3937 9.94843C14.825 9.69522 14.3082 9.32409 13.8729 8.85621C13.4377 8.38834 13.0924 7.8329 12.8568 7.22159C12.6212 6.61029 12.5 5.9551 12.5 5.29343C12.5 3.95712 12.9939 2.67555 13.8729 1.73064C14.752 0.785728 15.9443 0.254883 17.1875 0.254883C18.4307 0.254883 19.623 0.785728 20.5021 1.73064C21.3811 2.67555 21.875 3.95712 21.875 5.29343ZM10.8375 12.4817C10.2125 12.2702 9.56818 12.1311 8.91562 12.0669C8.54896 12.0294 8.18082 12.0109 7.8125 12.0115C1.5625 12.0115 0 17.05 0 18.7295C0 19.8498 0.520312 20.4091 1.5625 20.4091H8.15C7.91837 19.8847 7.80285 19.3099 7.8125 18.7295C7.8125 17.0332 8.40156 15.3 9.51562 13.8522C9.89531 13.3585 10.3375 12.8966 10.8375 12.4817ZM7.6875 13.691C6.76274 15.1845 6.26319 16.9355 6.25 18.7295H1.5625C1.5625 18.2929 1.81875 16.9996 2.75 15.8341C3.60156 14.7659 5.08125 13.7246 7.6875 13.6927V13.691ZM2.34375 6.13318C2.34375 4.79688 2.83761 3.51531 3.71669 2.5704C4.59576 1.62549 5.78805 1.09464 7.03125 1.09464C8.27445 1.09464 9.46674 1.62549 10.3458 2.5704C11.2249 3.51531 11.7188 4.79688 11.7188 6.13318C11.7188 7.46949 11.2249 8.75106 10.3458 9.69597C9.46674 10.6409 8.27445 11.1717 7.03125 11.1717C5.78805 11.1717 4.59576 10.6409 3.71669 9.69597C2.83761 8.75106 2.34375 7.46949 2.34375 6.13318ZM7.03125 2.77415C6.20245 2.77415 5.40759 3.12805 4.82154 3.75799C4.23549 4.38793 3.90625 5.24231 3.90625 6.13318C3.90625 7.02405 4.23549 7.87843 4.82154 8.50838C5.40759 9.13832 6.20245 9.49221 7.03125 9.49221C7.86005 9.49221 8.65491 9.13832 9.24096 8.50838C9.82701 7.87843 10.1562 7.02405 10.1562 6.13318C10.1562 5.24231 9.82701 4.38793 9.24096 3.75799C8.65491 3.12805 7.86005 2.77415 7.03125 2.77415Z" fill="white"/>
</svg>
