<svg width="25" height="24" viewBox="0 0 25 24" fill="none" xmlns="http://www.w3.org/2000/svg">
<path id="Vector" d="M20.3236 5.02268C19.6778 3.61018 18.5905 2.40402 17.1985 1.55574C15.8066 0.707455 14.1719 0.254883 12.5 0.254883C10.8281 0.254883 9.19343 0.707455 7.80145 1.55574C6.40947 2.40402 5.32224 3.61018 4.67636 5.02268C3.28637 5.61226 2.1084 6.55218 1.28027 7.7325C0.452138 8.91282 0.00807671 10.2847 3.20863e-05 11.6877C-0.0122447 15.6561 3.50002 18.9661 7.82814 19.0684C9.13743 19.0997 10.4351 18.836 11.6071 18.3007V22.3396C11.6071 22.5564 11.7012 22.7645 11.8687 22.9178C12.0361 23.0712 12.2632 23.1574 12.5 23.1574C12.7368 23.1574 12.9639 23.0712 13.1313 22.9178C13.2988 22.7645 13.3929 22.5564 13.3929 22.3396V18.3007C14.502 18.8073 15.7248 19.0702 16.9643 19.0684H17.1719C21.5 18.9661 25.0122 15.6581 25 11.6898C24.9925 10.2864 24.5487 8.91399 23.7205 7.73326C22.8923 6.55252 21.7141 5.6123 20.3236 5.02268ZM17.1261 17.4328C15.8367 17.4657 14.568 17.1298 13.4966 16.4719C13.4617 16.4514 13.4271 16.432 13.3929 16.4136V12.2132L18.2567 9.98671C18.3616 9.93866 18.4552 9.87214 18.5321 9.79095C18.6089 9.70977 18.6676 9.61551 18.7047 9.51356C18.7418 9.41161 18.7566 9.30397 18.7483 9.19678C18.74 9.08958 18.7087 8.98494 18.6562 8.88882C18.6038 8.7927 18.5311 8.70699 18.4425 8.63658C18.3539 8.56617 18.251 8.51244 18.1397 8.47846C18.0284 8.44447 17.9108 8.4309 17.7938 8.43852C17.6768 8.44614 17.5625 8.4748 17.4576 8.52286L13.3929 10.3854V7.61919C13.3929 7.4023 13.2988 7.19429 13.1313 7.04092C12.9639 6.88755 12.7368 6.80139 12.5 6.80139C12.2632 6.80139 12.0361 6.88755 11.8687 7.04092C11.7012 7.19429 11.6071 7.4023 11.6071 7.61919V12.8388L7.54242 10.9762C7.33049 10.8792 7.08514 10.8632 6.86034 10.9319C6.63555 11.0005 6.44973 11.1481 6.34376 11.3422C6.2378 11.5363 6.22036 11.7611 6.29529 11.967C6.37022 12.1729 6.53138 12.343 6.74332 12.4401L11.6071 14.6666V16.4105C11.5722 16.4289 11.5376 16.4483 11.5034 16.4688C10.4321 17.1273 9.16362 17.4642 7.8739 17.4328C6.46232 17.4005 5.10428 16.9313 4.02102 16.1017C2.93775 15.2722 2.1931 14.1311 1.90837 12.8643C1.62364 11.5976 1.81561 10.2798 2.45302 9.1258C3.09042 7.97175 4.13569 7.04941 5.41854 6.50903C5.82427 6.33876 6.14506 6.03472 6.31698 5.6575C6.82662 4.54188 7.68496 3.58916 8.78409 2.91909C9.88322 2.24902 11.1741 1.89152 12.4944 1.89152C13.8147 1.89152 15.1056 2.24902 16.2047 2.91909C17.3039 3.58916 18.1622 4.54188 18.6719 5.6575C18.8438 6.03472 19.1646 6.33876 19.5703 6.50903C20.8531 7.04941 21.8984 7.97175 22.5358 9.1258C23.1732 10.2798 23.3652 11.5976 23.0805 12.8643C22.7957 14.1311 22.0511 15.2722 20.9678 16.1017C19.8846 16.9313 18.5265 17.4005 17.1149 17.4328H17.1261Z" fill="white"/>
</svg>
