<svg width="25" height="24" viewBox="0 0 25 24" fill="none" xmlns="http://www.w3.org/2000/svg">
<path id="Vector" d="M1.78917 11.1279V19.3235H5.7759L5.97721 19.3441C9.67842 20.0953 12.131 20.637 13.3533 20.9725C14.977 21.4179 15.5822 21.5267 16.6835 21.5908C17.5071 21.6401 18.4426 21.3641 18.8689 20.9862C19.1045 20.7778 19.2808 20.3495 19.3505 19.6854C19.365 19.5461 19.4222 19.4128 19.5161 19.2993C19.6101 19.1859 19.7374 19.0966 19.8847 19.0407C20.2123 18.917 20.4847 18.7154 20.7123 18.4223C20.9228 18.1543 21.0597 17.6551 21.0847 16.9325C21.0891 16.7996 21.1323 16.67 21.2104 16.5558C21.2884 16.4415 21.3987 16.3465 21.5307 16.2798C22.2965 15.8939 22.6754 15.4587 22.7544 14.948C22.8412 14.3834 22.6307 13.7479 22.0794 13.0242C21.95 12.8544 21.9019 12.6475 21.9451 12.4473C21.9883 12.2472 22.1196 12.0696 22.311 11.9523C22.8386 11.6294 23.128 11.1805 23.2004 10.5438C23.3162 9.52926 22.5728 8.7792 20.8899 8.62919C19.3911 8.50018 17.8778 8.61 16.4243 8.95326C16.2594 8.99076 16.0856 8.9865 15.9234 8.94097C15.7612 8.89544 15.6173 8.81054 15.5087 8.69627C15.4001 8.58198 15.3312 8.44308 15.3102 8.29588C15.2892 8.14869 15.3169 7.99934 15.3901 7.86539C16.048 6.65385 16.4138 5.65416 16.4993 4.88006C16.6111 3.85288 16.3388 3.10855 15.7019 2.49477C15.2191 2.02985 14.4467 1.76418 14.1572 1.81914C13.7757 1.89014 13.527 2.08252 13.2033 2.75585C13.0125 3.15436 12.9204 3.49331 12.7625 4.28459C12.6112 5.03579 12.5283 5.37475 12.356 5.81906C11.8363 7.16572 10.5613 8.56163 8.84949 9.52468C7.64979 10.1988 6.34956 10.7267 4.98513 11.0935C4.89989 11.1164 4.81118 11.1279 4.72198 11.1279H1.78917ZM1.73391 20.8843C1.30892 20.8946 0.927351 20.8122 0.607624 20.6175C0.19974 20.369 0.00764053 19.9774 0.00369327 19.5262L0.00764053 11.1404C-0.037095 10.6938 0.114216 10.2839 0.472101 9.97929C0.807618 9.69301 1.24576 9.55789 1.70891 9.56705H4.58383C5.74676 9.24455 6.8555 8.78941 7.8811 8.21351C9.26001 7.43712 10.2758 6.32406 10.6639 5.32093C10.7968 4.9751 10.8679 4.68882 11.0021 4.01549C11.1836 3.11199 11.2968 2.69173 11.5573 2.15123C12.0968 1.02672 12.8046 0.477058 13.7809 0.292693C14.7414 0.111763 16.1401 0.59386 17.0243 1.44583C18.0045 2.38941 18.4374 3.57004 18.2769 5.02892C18.2084 5.65645 18.0084 6.35841 17.6795 7.14053C18.8029 6.99805 19.9421 6.97651 21.0715 7.0764C23.7122 7.31115 25.1951 8.80783 24.9793 10.6996C24.8846 11.5149 24.5451 12.2077 23.9675 12.7516C24.453 13.5658 24.6464 14.3708 24.5254 15.1564C24.3859 16.061 23.807 16.8145 22.8438 17.3997C22.7688 18.1933 22.5596 18.8265 22.1886 19.3006C21.8962 19.6836 21.5148 20.009 21.0689 20.2556C20.9268 21.0389 20.6281 21.6515 20.14 22.0821C19.3308 22.799 17.8848 23.2261 16.5637 23.1482C15.3098 23.0749 14.5678 22.9421 12.8178 22.4611C11.6639 22.1439 9.27448 21.6172 5.67327 20.8843H1.73391ZM3.972 10.7717C3.97166 10.6693 3.99454 10.5678 4.03935 10.473C4.08416 10.3783 4.15001 10.2922 4.23312 10.2196C4.31624 10.1471 4.41499 10.0895 4.52371 10.0502C4.63244 10.011 4.749 9.99074 4.86671 9.99074C4.98421 9.99104 5.10049 10.0115 5.2089 10.0509C5.31732 10.0903 5.41576 10.1479 5.4986 10.2204C5.58144 10.293 5.64705 10.379 5.6917 10.4736C5.73634 10.5681 5.75914 10.6695 5.75879 10.7717V19.564C5.75897 19.6662 5.73599 19.7675 5.69119 19.8621C5.64639 19.9566 5.58063 20.0425 5.49767 20.1149C5.41471 20.1873 5.31617 20.2448 5.20769 20.2841C5.0992 20.3234 4.98289 20.3437 4.8654 20.3438C4.7479 20.3437 4.63159 20.3234 4.52311 20.2841C4.41462 20.2448 4.31609 20.1873 4.23313 20.1149C4.15017 20.0425 4.08441 19.9566 4.0396 19.8621C3.9948 19.7675 3.97183 19.6662 3.972 19.564V10.7717Z" fill="white"/>
</svg>
