<svg width="30" height="30" viewBox="0 0 30 30" fill="none" xmlns="http://www.w3.org/2000/svg">
<path id="Vector" d="M18.7726 1.71841C18.8142 1.55845 18.9174 1.42146 19.0597 1.33742C19.202 1.25338 19.3718 1.22913 19.532 1.26997C21.7448 1.84629 23.7637 3.00261 25.3805 4.61959C26.9973 6.23658 28.1533 8.25566 28.7292 10.4685C28.7701 10.6284 28.7461 10.7981 28.6624 10.9403C28.5786 11.0826 28.442 11.186 28.2823 11.2279C28.2315 11.2424 28.1789 11.2498 28.1261 11.2498C27.9879 11.2493 27.8537 11.2031 27.7446 11.1183C27.6354 11.0334 27.5575 10.9148 27.5229 10.781C27.0012 8.78422 25.9569 6.96245 24.4975 5.5031C23.0382 4.04376 21.2163 2.99952 19.2195 2.4778C19.0598 2.43589 18.9232 2.33252 18.8395 2.19025C18.7557 2.04797 18.7317 1.87835 18.7726 1.71841ZM17.9694 7.47785C20.3133 8.10755 21.893 9.68725 22.5227 12.031C22.5573 12.1649 22.6352 12.2834 22.7444 12.3683C22.8535 12.4531 22.9877 12.4993 23.1259 12.4998C23.1787 12.4998 23.2313 12.4924 23.2821 12.4779C23.442 12.435 23.5783 12.3305 23.6612 12.1873C23.7441 12.0441 23.7668 11.8738 23.7243 11.7138C22.9743 8.9013 21.0914 7.02628 18.282 6.27002C18.1258 6.23983 17.964 6.2703 17.8295 6.35523C17.6951 6.44015 17.598 6.57314 17.5582 6.72711C17.5184 6.88108 17.5387 7.04445 17.6151 7.18393C17.6915 7.32341 17.8182 7.42852 17.9694 7.47785ZM29.9918 22.903C29.7324 24.8701 28.7655 26.6755 27.2719 27.9816C25.7782 29.2877 23.86 30.0052 21.8758 30C9.81289 30 1.75588e-05 20.1874 1.75588e-05 8.12473C-0.00409383 6.1414 0.713932 4.22439 2.01998 2.73176C3.32603 1.23913 5.13079 0.27296 7.09716 0.0137073C7.5 -0.0352668 7.90786 0.0477685 8.25949 0.250344C8.61112 0.452919 8.88754 0.7641 9.04723 1.13716L12.3442 8.50286C12.4675 8.78847 12.5177 9.10025 12.4904 9.41012C12.4632 9.71998 12.3592 10.0182 12.188 10.2779C12.1739 10.2982 12.1598 10.3185 12.1442 10.3373L8.8316 14.2764C8.77962 14.3627 8.74984 14.4605 8.74493 14.5611C8.74002 14.6617 8.76014 14.762 8.80347 14.8529C10.0285 17.3608 12.6552 19.9671 15.1928 21.1921C15.2844 21.2346 15.3851 21.2538 15.486 21.2481C15.5868 21.2424 15.6847 21.2118 15.7709 21.1593L19.657 17.8592L19.7164 17.8139C19.9764 17.6421 20.2752 17.5379 20.5857 17.5106C20.8962 17.4833 21.2085 17.5339 21.4946 17.6576L28.873 20.9639C29.2423 21.1246 29.5501 21.4 29.7508 21.7492C29.9514 22.0984 30.0343 22.503 29.9871 22.903H29.9918ZM28.3745 22.103L20.993 18.7967C20.9033 18.7591 20.806 18.7433 20.709 18.7506C20.612 18.7579 20.5182 18.7882 20.4352 18.8389L16.5631 22.1389L16.5053 22.1827C16.2361 22.3624 15.9249 22.4694 15.6021 22.4933C15.2793 22.5171 14.9558 22.4569 14.6631 22.3186C11.8505 20.9608 9.05192 18.1811 7.69406 15.4014C7.5544 15.1109 7.49197 14.7894 7.51277 14.4678C7.53357 14.1462 7.63691 13.8354 7.81281 13.5654C7.82687 13.5435 7.8425 13.5248 7.85812 13.5045L11.1692 9.56694C11.2188 9.48254 11.2479 9.38767 11.2542 9.28996C11.2604 9.19226 11.2436 9.09445 11.2051 9.00443L7.90188 1.63873C7.85533 1.52454 7.77605 1.42667 7.67401 1.35744C7.57196 1.28821 7.45172 1.25071 7.32842 1.24966C7.30344 1.24811 7.27839 1.24811 7.25341 1.24966C5.58812 1.4703 4.06021 2.2899 2.95533 3.55522C1.85044 4.82054 1.24425 6.44494 1.25006 8.12473C1.25006 19.4967 10.5035 28.75 21.8758 28.75C23.5557 28.7558 25.1801 28.1496 26.4455 27.0447C27.7108 25.9399 28.5304 24.412 28.7511 22.7468C28.7655 22.6127 28.7361 22.4776 28.6674 22.3615C28.5987 22.2455 28.4943 22.1548 28.3698 22.103H28.3745Z" fill="white"/>
</svg>
