<svg width="40" height="40" viewBox="0 0 40 40" fill="none" xmlns="http://www.w3.org/2000/svg">
<g id="game-icons:rake">
<path id="Vector" d="M7.31945 1.40625L15.9455 21.3028C16.2263 21.0751 16.5565 20.8941 16.922 20.7678C17.192 20.6745 17.4838 20.612 17.7857 20.597C17.8765 20.5926 17.9675 20.5928 18.0584 20.5973L9.7507 1.40625H7.31945ZM17.9663 22.002C17.928 22.0009 17.8896 22.0014 17.8513 22.0034C17.6966 22.0113 17.5366 22.0432 17.381 22.0971C17.0699 22.2045 16.7894 22.4045 16.6546 22.5651C16.58 22.6538 16.562 22.694 16.5557 22.7034L18.2032 26.177L18.6713 26.1434L20.541 25.8876L19.0264 22.7362C18.8045 22.304 18.5605 22.1377 18.2907 22.0536C18.1894 22.022 18.0798 22.0052 17.9662 22.002L17.9663 22.002ZM16.5557 22.7035L16.5411 22.6727C16.5532 22.6989 16.5507 22.711 16.5557 22.7035ZM35.8076 25.367C35.7298 25.3667 35.6474 25.375 35.5604 25.3929L2.08586 29.832C1.33633 29.967 1.46438 31.8598 2.10352 32.1603C3.98102 33.3713 3.89914 38.3917 5.14289 38.3917C5.6343 38.3917 5.30398 32.5228 4.58945 31.8202L6.30758 31.5851C8.07383 32.9157 8.01906 37.7407 9.23836 37.7407C9.7143 37.7407 9.41961 32.2366 8.75148 31.2509L10.3468 31.0325C12.1465 32.3278 12.0835 37.2122 13.3103 37.2122C13.7908 37.2122 13.4859 31.6048 12.8045 30.6962L14.4645 30.469C16.1658 31.8663 16.1271 36.5743 17.3315 36.5743C17.7995 36.5743 17.5223 31.2548 16.878 30.1388L18.5066 29.9161C20.2384 31.2823 20.1918 36.0459 21.4032 36.0459C21.8748 36.0459 21.5896 30.6399 20.9341 29.5837L22.7115 29.3405C24.3597 30.7905 24.3338 35.4019 25.5257 35.4019C25.9876 35.4019 25.7234 30.222 25.097 29.0142L26.7537 28.7874C28.4316 30.2084 28.3989 34.8734 29.5978 34.8734C30.063 34.8734 29.7914 29.616 29.155 28.4589L30.8602 28.2256C32.4521 29.7293 32.4406 34.2355 33.6189 34.2355C34.0737 34.2355 33.8244 29.2087 33.2184 27.9027L34.9049 27.672C36.5241 29.1499 36.5057 33.7071 37.6907 33.7071C38.5415 31.0501 37.5516 28.0563 36.4955 25.7388C36.3897 25.5271 36.1444 25.3677 35.8075 25.3667L35.8076 25.367Z" fill="#79835E"/>
</g>
</svg>
