<svg width="40" height="40" viewBox="0 0 40 40" fill="none" xmlns="http://www.w3.org/2000/svg">
<g id="game-icons:high-grass">
<path id="Vector" d="M36.0596 3.04204C24.4871 12.8948 18.1633 28.9956 16.4307 38.4766H22.4634C24.9319 28.9066 26.4583 17.8911 36.0597 3.04196L36.0596 3.04204ZM6.12305 7.1386C10.2166 12.0445 14.116 17.4863 17.2241 22.7074C17.7828 23.6458 18.3248 24.5941 18.8499 25.5517C19.4786 24.0117 20.1585 22.4931 20.8886 20.9984C16.8404 15.4336 12.0242 10.4512 6.12297 7.13868L6.12305 7.1386ZM36.6846 17.5855C32.6543 21.2181 30.524 26.5271 29.607 32.4804C30.6831 34.4988 31.6932 36.4878 32.6488 38.4081H35.725C33.7523 32.8253 34.8237 25.7238 36.6846 17.5855ZM5.23438 18.7841C10.9345 24.5076 14.6714 33.5185 11.4917 38.3763H15.0073C15.3584 36.4138 15.8933 34.1863 16.6235 31.7943C15.1827 25.2094 10.2672 18.9787 5.23438 18.7844V18.7841ZM2.66602 25.6542C6.8082 31.9774 7.48672 35.4172 5.8643 38.357H11.1377C10.1143 32.7305 8.68117 29.2707 2.66602 25.6543V25.6542ZM26.1768 29.2163C25.3448 32.4475 24.6777 35.5004 23.9258 38.4545H31.0914C29.5958 35.4634 27.9727 32.3302 26.1768 29.2163Z" fill="#79835E"/>
</g>
</svg>
