<svg width="40" height="40" viewBox="0 0 40 40" fill="none" xmlns="http://www.w3.org/2000/svg">
<g id="game-icons:tree-branch">
<path id="Vector" d="M26.2183 1.44766C23.0805 1.45992 20.3134 4.3025 19.2921 5.49062C17.3319 5.13984 15.3483 4.96359 13.3472 4.98047C11.8205 4.99336 10.2833 5.12 8.74022 5.36133C6.99178 3.9607 5.10069 2.89023 3.07616 2.47305C1.01358 3.53844 1.63053 5.17203 2.08991 6.7725C4.73444 6.55516 7.43178 7.39883 10.1417 8.68172C10.7362 9.07834 11.3214 9.4886 11.897 9.91219C12.6933 12.7262 13.0833 15.5125 13.2056 18.2887C11.2551 18.7002 7.44311 19.8704 6.33311 22.8638L10.7594 22.2341L6.01084 24.6241C5.88662 26.8126 6.34116 28.608 6.97022 30.2369L9.98787 27.0436L7.71733 31.985C8.68881 34.1045 9.71108 36.0652 9.72905 38.4572C10.9535 37.2273 12.1249 36.2184 13.1911 35.2712L12.4635 30.6666L14.1994 34.358C15.5789 33.0716 16.7176 31.8044 17.4635 30.1271L14.6291 25.7472L18.113 28.1277C18.1294 28.0523 18.1443 27.9751 18.1594 27.8981C19.0227 23.5359 15.6844 19.5018 14.6706 18.3962C14.5776 16.0722 14.3053 13.7294 13.7722 11.3624C16.874 13.8804 19.8724 16.915 22.6053 20.3687C21.9669 22.6084 21.6139 24.454 21.4994 25.9913L23.9676 23.7671L21.5605 28.5816C21.8377 30.4529 22.6519 31.682 23.8262 32.6099L25.806 29.004L25.098 33.4425C26.401 34.1595 27.9712 34.7123 29.661 35.3784C29.6472 34.0691 29.6837 33.0863 29.6829 31.6016L31.0551 35.9523C32.5277 36.5838 34.0599 37.3484 35.5644 38.418C35.758 36.1891 35.7605 33.954 35.5375 31.8409L31.3431 30.2295L35.3739 30.5665C35.0637 28.5509 34.529 26.6787 33.7358 25.0733L29.0235 24.0112L32.7027 23.3448C31.044 21.0466 28.6336 19.6162 25.315 19.6191C24.8732 19.6195 24.415 19.6472 23.9406 19.6997C20.0971 14.7942 15.7293 10.6917 11.233 7.6489C10.8983 7.30329 10.5556 6.96544 10.2053 6.63562C13.2451 6.2875 16.2519 6.41015 19.2092 6.95555C19.7738 8.36476 21.067 10.9983 23.279 12.3755L22.7517 8.19101L25.0514 13.1177C25.2837 13.1716 25.5222 13.2135 25.7692 13.2373C30.4286 13.688 33.4717 9.64883 38.1862 10.2149C36.7451 9.52273 35.7583 8.54398 34.8489 7.47562L29.5486 7.51961L33.5646 5.9157C32.4607 4.58109 31.2169 3.25109 29.1823 2.26336L25.381 4.57031L27.4025 1.58437C27.0146 1.49233 26.6171 1.44644 26.2184 1.44766H26.2183Z" fill="#79835E"/>
</g>
</svg>
