<svg width="40" height="40" viewBox="0 0 40 40" fill="none" xmlns="http://www.w3.org/2000/svg">
<g id="game-icons:axe-in-stump">
<path id="Vector" d="M1.44775 1.53812V4.76797C7.07611 5.82578 12.0762 7.48562 17.4732 9.7607V9.7632C18.4753 10.1195 19.1907 10.709 19.5704 11.4184C19.9563 12.1395 19.982 12.9582 19.7071 13.6498C19.2206 14.8741 17.7691 15.6477 16.1306 15.2416C15.3224 16.7984 14.261 18.3371 12.8175 19.846C13.6754 20.3861 14.5676 20.8698 15.4884 21.2938H24.0235C25.6029 17.0441 26.5999 12.7241 27.0192 8.72062C18.8537 7.53156 11.1113 5.0743 3.75252 1.53797H1.44783L1.44775 1.53812ZM26.2208 19.4288C26.0179 20.0599 25.8038 20.6875 25.5786 21.311H27.8396V22.7712H15.2075V22.754H15.1612L15.0172 22.688C13.7196 22.1011 12.4698 21.3966 11.2574 20.5738L11.0108 20.4078C10.1559 20.7547 9.47135 21.143 9.01369 21.5283C8.46502 21.9904 8.26658 22.3928 8.26658 22.7466C8.26658 23.1005 8.46502 23.5052 9.01369 23.9673C9.56236 24.4295 10.4331 24.897 11.5381 25.2907C13.7483 26.0778 16.8879 26.5845 20.3589 26.5845C23.8299 26.5845 26.9721 26.0778 29.1821 25.2907C30.2873 24.897 31.1579 24.4295 31.7067 23.9673C32.2553 23.5053 32.4537 23.1005 32.4537 22.7466C32.4537 22.393 32.2553 21.9904 31.7067 21.5284C31.1579 21.0663 30.2873 20.5987 29.1822 20.2052C28.3241 19.8995 27.3249 19.6366 26.2209 19.4288H26.2208ZM7.93721 24.9634C7.54314 31.4011 4.80221 33.009 2.35596 34.7364C3.96299 35.0908 5.76846 35.395 7.58564 35.3273C9.55471 34.558 11.6046 32.4923 13.086 30.8374C12.449 32.3823 11.5548 33.8862 10.3858 35.398L8.35713 38.4789C11.8367 37.9018 15.1079 37.1324 18.4548 34.8559C17.8343 33.2284 17.3628 31.6432 17.0313 30.0757C18.3451 32.1702 19.8031 34.198 21.4942 36.0644C21.4966 36.067 21.4992 36.0691 21.5016 36.0717L23.999 38.4666C25.9659 36.0113 27.4168 33.3466 28.5742 30.6639C28.5623 31.9041 28.461 33.1873 28.1836 34.5384C31.619 35.3138 35.0534 34.8185 38.4888 34.7361C34.9864 33.3113 32.9611 30.4689 32.6025 25.1195C31.858 25.7341 30.865 26.2403 29.6728 26.665C27.2416 27.5309 23.9705 28.0444 20.3589 28.0444C16.7474 28.0444 13.4786 27.5309 11.0474 26.6648C9.83174 26.2319 8.82291 25.7137 8.07377 25.0828C8.02689 25.0434 7.98197 25.0039 7.93705 24.9633L7.93721 24.9634Z" fill="#79835E"/>
</g>
</svg>
