<svg width="35" height="36" viewBox="0 0 35 36" fill="none" xmlns="http://www.w3.org/2000/svg">
<path id="Vector" d="M35 33.9833L25.2233 24.1885C27.5727 21.3627 28.7443 17.7383 28.4943 14.0692C28.2443 10.4002 26.592 6.96886 23.8811 4.48918C21.1703 2.0095 17.6095 0.672348 13.9397 0.755889C10.2698 0.83943 6.7734 2.33723 4.17775 4.93771C1.58209 7.53819 0.0870707 11.0411 0.00368461 14.7178C-0.0797015 18.3945 1.25497 21.9618 3.73005 24.6778C6.20512 27.3937 9.63004 29.049 13.2923 29.2995C16.9546 29.5499 20.5723 28.3762 23.3928 26.0224L33.1695 35.8173L35 33.9833ZM2.63546 15.0655C2.63546 12.7568 3.31879 10.4999 4.59905 8.58034C5.8793 6.66074 7.69897 5.1646 9.82796 4.2811C11.9569 3.39761 14.2996 3.16645 16.5597 3.61685C18.8199 4.06725 20.8959 5.17899 22.5254 6.81147C24.1548 8.44396 25.2645 10.5239 25.7141 12.7882C26.1636 15.0525 25.9329 17.3995 25.051 19.5325C24.1692 21.6654 22.6758 23.4885 20.7598 24.7711C18.8437 26.0538 16.5911 26.7384 14.2867 26.7384C11.1976 26.7349 8.2361 25.504 6.05181 23.3157C3.86752 21.1273 2.63888 18.1603 2.63546 15.0655Z" fill="#79835E"/>
</svg>
