<svg width="35" height="36" viewBox="0 0 35 36" fill="none" xmlns="http://www.w3.org/2000/svg">
<path id="Vector" d="M33.4091 32.3108V18.2847C33.4091 17.3548 33.0739 16.4629 32.4772 15.8053C31.8805 15.1477 31.0711 14.7782 30.2273 14.7782H22.2727V13.025H19.0909V23.5445H22.2727V21.7913H27.0455V32.3108H25.4545V35.8173H35V32.3108H33.4091ZM31.8182 32.3108H28.6364V20.038H22.2727V16.5315H30.2273C30.6492 16.5315 31.0539 16.7162 31.3522 17.045C31.6506 17.3738 31.8182 17.8198 31.8182 18.2847V32.3108ZM12.7273 13.025V14.7782H7.95455V4.25871H9.54545V0.752197H0V4.25871H1.59091V18.2847C1.59091 19.2147 1.92614 20.1066 2.52284 20.7642C3.11955 21.4218 3.92886 21.7913 4.77273 21.7913H12.7273V23.5445H15.9091V13.025H12.7273ZM12.7273 20.038H4.77273C4.35079 20.038 3.94614 19.8533 3.64778 19.5245C3.34943 19.1957 3.18182 18.7497 3.18182 18.2847V4.25871H6.36364V16.5315H12.7273V20.038Z" fill="#79835E"/>
</svg>
