<svg width="37" height="38" viewBox="0 0 37 38" fill="none" xmlns="http://www.w3.org/2000/svg">
<path id="Vector" d="M1 8.06825L7.18233 1.8746M4.09116 4.97143L20.5774 21.4878M16.0107 26.0794L25.1605 16.9128C25.3458 16.7272 25.5657 16.58 25.8077 16.4795C26.0498 16.3791 26.3092 16.3274 26.5711 16.3274C26.8331 16.3274 27.0925 16.3791 27.3346 16.4795C27.5766 16.58 27.7965 16.7272 27.9817 16.9128L33.5541 22.4953C35.127 24.089 36.0064 26.2416 36 28.4828C35.9936 30.724 35.102 32.8715 33.52 34.4561C31.9379 36.0408 29.7942 36.9336 27.5571 36.9397C25.32 36.9457 23.1715 36.0644 21.581 34.4883L16.0107 28.9057C15.8251 28.7201 15.6779 28.4997 15.5775 28.257C15.477 28.0143 15.4253 27.7542 15.4253 27.4915C15.4253 27.2288 15.477 26.9687 15.5775 26.726C15.6779 26.4834 15.8251 26.2629 16.0107 26.0773V26.0794Z" stroke="#79835E" stroke-width="2" stroke-linecap="round" stroke-linejoin="round"/>
</svg>
