<svg width="35" height="36" viewBox="0 0 35 36" fill="none" xmlns="http://www.w3.org/2000/svg">
<path id="Vector" d="M5.51987 0.874268L13.8051 19.7378C14.0748 19.5218 14.3919 19.3502 14.743 19.2305C15.0023 19.1421 15.2826 19.0828 15.5726 19.0685C15.6598 19.0644 15.7472 19.0646 15.8345 19.0689L7.85506 0.874268H5.51987ZM15.7461 20.4006C15.7092 20.3996 15.6724 20.4 15.6356 20.4019C15.487 20.4095 15.3334 20.4397 15.1839 20.4908C14.8851 20.5926 14.6156 20.7823 14.4862 20.9345C14.4145 21.0186 14.3972 21.0567 14.3912 21.0656L15.9736 24.3589L16.4232 24.327L18.219 24.0845L16.7643 21.0967C16.5511 20.6869 16.3168 20.5293 16.0576 20.4496C15.9603 20.4196 15.855 20.4036 15.7459 20.4007L15.7461 20.4006ZM14.3912 21.0657L14.3771 21.0365C14.3888 21.0614 14.3864 21.0728 14.3912 21.0657ZM32.8824 23.5909C32.8077 23.5907 32.7285 23.5985 32.645 23.6155L0.493067 27.8241C-0.226849 27.952 -0.103861 29.7466 0.510026 30.0315C2.31334 31.1796 2.2347 35.9394 3.42931 35.9394C3.9013 35.9394 3.58404 30.3752 2.89774 29.7091L4.54798 29.4861C6.24444 30.7477 6.19184 35.3221 7.36296 35.3221C7.82009 35.3221 7.53705 30.1039 6.89532 29.1693L8.4276 28.9623C10.1562 30.1903 10.0957 34.8211 11.274 34.8211C11.7355 34.8211 11.4426 29.5048 10.7881 28.6434L12.3826 28.428C14.0167 29.7528 13.9795 34.2163 15.1363 34.2163C15.5858 34.2163 15.3195 29.173 14.7007 28.1149L16.265 27.9038C17.9283 29.1991 17.8836 33.7154 19.0471 33.7154C19.5001 33.7154 19.2262 28.5901 18.5966 27.5887L20.3037 27.3581C21.8868 28.7329 21.862 33.1048 23.0068 33.1048C23.4504 33.1048 23.1966 28.1939 22.5949 27.0488L24.1863 26.8337C25.7979 28.1809 25.7664 32.6037 26.918 32.6037C27.3647 32.6037 27.1039 27.6193 26.4926 26.5223L28.1304 26.3011C29.6595 27.7267 29.6485 31.999 30.7802 31.999C31.217 31.999 30.9775 27.2331 30.3955 25.995L32.0154 25.7762C33.5706 27.1774 33.5529 31.498 34.6911 31.498C35.5083 28.9789 34.5575 26.1406 33.5432 23.9434C33.4415 23.7427 33.2059 23.5916 32.8823 23.5907L32.8824 23.5909Z" fill="#79835E"/>
</svg>
