<svg width="35" height="35" viewBox="0 0 35 35" fill="none" xmlns="http://www.w3.org/2000/svg">
<g id="octicon:container-24" clip-path="url(#clip0_8_31)">
<path id="Vector" d="M19.1801 0.994584C19.6822 0.701568 20.2532 0.547166 20.8346 0.547166C21.4159 0.547166 21.9869 0.701568 22.489 0.994584L22.4992 1.00042L32.6449 7.23625C33.1446 7.52901 33.559 7.94736 33.8471 8.4498C34.1351 8.95223 34.2868 9.52127 34.2869 10.1004V21.0613C34.2869 22.2425 33.657 23.3363 32.6347 23.9313L32.6317 23.9327L15.1842 34.195L15.1784 34.1994C14.1488 34.7973 12.8772 34.7973 11.8476 34.1994L11.8097 34.1775L2.32612 27.6121C1.83812 27.3175 1.43453 26.9019 1.15449 26.4054C0.874447 25.9089 0.72746 25.3485 0.727784 24.7785V13.7638C0.727784 13.1921 0.873617 12.6408 1.14195 12.1596L1.14633 12.1508L1.16674 12.1129C1.45403 11.6142 1.86674 11.1985 2.36258 10.9069H2.36549L19.1801 0.994584ZM20.284 2.88313H20.2826L3.86174 12.565L12.9734 18.7585C13.1435 18.851 13.3345 18.8982 13.528 18.8956C13.7216 18.8931 13.9112 18.8409 14.0788 18.744L31.0451 8.82146L21.3778 2.88021C21.2111 2.78488 21.0223 2.73509 20.8303 2.73586C20.6383 2.73663 20.4499 2.78792 20.284 2.88458V2.88313ZM12.4207 20.8979C12.2218 20.8287 12.0299 20.7408 11.8476 20.6354L11.814 20.615L2.91528 14.5673V24.78C2.91528 25.181 3.12674 25.55 3.46799 25.7483L3.50445 25.7688L12.4207 31.9404V20.8979ZM26.2501 14.159L21.5105 16.9298V27.9373L26.2501 25.149V14.159ZM15.1813 20.631L15.1784 20.634C14.997 20.7391 14.8061 20.827 14.6082 20.8965V31.9973L19.323 29.2235V18.2102L15.1813 20.631ZM28.4376 12.8785V23.8627L31.5351 22.0398C31.7066 21.9404 31.849 21.7977 31.9481 21.626C32.0471 21.4542 32.0993 21.2595 32.0994 21.0613V10.7377L28.4376 12.8785Z" fill="#79835E"/>
</g>
<defs>
<clipPath id="clip0_8_31">
<rect width="35" height="35" fill="white"/>
</clipPath>
</defs>
</svg>
