<svg width="40" height="40" viewBox="0 0 40 40" fill="none" xmlns="http://www.w3.org/2000/svg">
<path d="M30.9532 9.78125C30.0489 7.62226 28.5268 5.77865 26.578 4.48205C24.6292 3.18545 22.3407 2.4937 20 2.4937C17.6593 2.4937 15.3708 3.18545 13.4221 4.48205C11.4733 5.77865 9.95116 7.62226 9.04692 9.78125C7.10092 10.6824 5.45177 12.1191 4.29238 13.9232C3.133 15.7273 2.51131 17.8243 2.50004 19.9688C2.48286 26.0344 7.40005 31.0938 13.4594 31.25C15.2924 31.2978 17.1091 30.8949 18.75 30.0766V36.25C18.75 36.5815 18.8817 36.8995 19.1162 37.1339C19.3506 37.3683 19.6685 37.5 20 37.5C20.3316 37.5 20.6495 37.3683 20.8839 37.1339C21.1184 36.8995 21.25 36.5815 21.25 36.25V30.0766C22.8029 30.851 24.5148 31.2527 26.25 31.25H26.5407C32.6 31.0938 37.5172 26.0375 37.5 19.9719C37.4896 17.8268 36.8682 15.7291 35.7088 13.9244C34.5493 12.1196 32.8998 10.6825 30.9532 9.78125ZM26.4766 28.75C24.6714 28.8004 22.8953 28.287 21.3954 27.2812C21.3464 27.25 21.298 27.2203 21.25 27.1922V20.7719L28.0594 17.3688C28.2063 17.2953 28.3373 17.1936 28.445 17.0695C28.5526 16.9454 28.6347 16.8014 28.6867 16.6455C28.7386 16.4897 28.7593 16.3252 28.7477 16.1613C28.7361 15.9975 28.6923 15.8375 28.6188 15.6906C28.5453 15.5437 28.4437 15.4127 28.3196 15.3051C28.1955 15.1975 28.0514 15.1153 27.8956 15.0634C27.7398 15.0114 27.5752 14.9907 27.4114 15.0023C27.2475 15.014 27.0876 15.0578 26.9407 15.1313L21.25 17.9781V13.75C21.25 13.4185 21.1184 13.1005 20.8839 12.8661C20.6495 12.6317 20.3316 12.5 20 12.5C19.6685 12.5 19.3506 12.6317 19.1162 12.8661C18.8817 13.1005 18.75 13.4185 18.75 13.75V21.7281L13.0594 18.8813C12.7627 18.7329 12.4192 18.7085 12.1045 18.8134C11.7898 18.9183 11.5296 19.1439 11.3813 19.4406C11.2329 19.7373 11.2085 20.0808 11.3134 20.3955C11.4183 20.7102 11.644 20.9704 11.9407 21.1188L18.75 24.5219V27.1875C18.7011 27.2156 18.6526 27.2453 18.6047 27.2766C17.1049 28.2831 15.3291 28.798 13.5235 28.75C11.5473 28.7006 9.64602 27.9835 8.12944 26.7155C6.61286 25.4475 5.57034 23.7034 5.17172 21.7671C4.7731 19.8309 5.04186 17.8168 5.93423 16.0528C6.8266 14.2889 8.28999 12.8791 10.086 12.0531C10.654 11.7929 11.1031 11.3281 11.3438 10.7516C12.0573 9.04635 13.259 7.59012 14.7978 6.56592C16.3365 5.54173 18.1438 4.99529 19.9922 4.99529C21.8407 4.99529 23.6479 5.54173 25.1867 6.56592C26.7255 7.59012 27.9272 9.04635 28.6407 10.7516C28.8814 11.3281 29.3305 11.7929 29.8985 12.0531C31.6945 12.8791 33.1579 14.2889 34.0502 16.0528C34.9426 17.8168 35.2114 19.8309 34.8127 21.7671C34.4141 23.7034 33.3716 25.4475 31.855 26.7155C30.3384 27.9835 28.4372 28.7006 26.461 28.75H26.4766Z" fill="#79835E"/>
</svg>
