<svg width="32" height="24" viewBox="0 0 32 24" fill="none" xmlns="http://www.w3.org/2000/svg">
<path id="Vector" d="M28.043 4.17943L16 13.7095L3.95699 4.17943M2.5361 1.02477C2.1287 1.02477 1.73799 1.19879 1.44991 1.50853C1.16184 1.81828 1 2.23838 1 2.67643V21.3483C1 21.7864 1.16184 22.2065 1.44991 22.5162C1.73799 22.826 2.1287 23 2.5361 23H29.4639C29.8713 23 30.262 22.826 30.5501 22.5162C30.8382 22.2065 31 21.7864 31 21.3483V2.65165C31 2.21361 30.8382 1.7935 30.5501 1.48376C30.262 1.17401 29.8713 1 29.4639 1H2.5361V1.02477Z" stroke="#546324" stroke-linecap="round" stroke-linejoin="round"/>
</svg>
