<svg width="30" height="39" viewBox="0 0 30 39" fill="none" xmlns="http://www.w3.org/2000/svg">
<path id="Vector" d="M15 8.66665C13.7285 8.66665 12.4857 9.04787 11.4285 9.7621C10.3713 10.4763 9.54734 11.4915 9.06077 12.6792C8.57421 13.8669 8.4469 15.1739 8.69495 16.4347C8.943 17.6956 9.55526 18.8538 10.4543 19.7628C11.3534 20.6719 12.4988 21.2909 13.7458 21.5417C14.9929 21.7925 16.2854 21.6638 17.4601 21.1718C18.6348 20.6799 19.6388 19.8468 20.3452 18.7778C21.0515 17.7089 21.4286 16.4522 21.4286 15.1666C21.4286 13.4427 20.7513 11.7894 19.5457 10.5705C18.3401 9.35147 16.705 8.66665 15 8.66665ZM15 20.2222C14.0111 20.2222 13.0444 19.9257 12.2221 19.3702C11.3999 18.8147 10.759 18.0251 10.3806 17.1013C10.0022 16.1775 9.90315 15.161 10.0961 14.1804C10.289 13.1997 10.7652 12.2989 11.4645 11.5918C12.1637 10.8848 13.0546 10.4033 14.0245 10.2082C14.9945 10.0132 15.9998 10.1133 16.9134 10.4959C17.827 10.8786 18.6079 11.5265 19.1573 12.3579C19.7068 13.1893 20 14.1667 20 15.1666C20 15.8305 19.8707 16.4879 19.6194 17.1013C19.3681 17.7147 18.9998 18.272 18.5355 18.7415C18.0712 19.2109 17.52 19.5833 16.9134 19.8374C16.3068 20.0914 15.6566 20.2222 15 20.2222ZM15 0C11.0231 0.00430144 7.21022 1.60359 4.3981 4.44696C1.58597 7.29032 0.00425418 11.1455 0 15.1666C0 20.6591 2.53036 26.5037 7.32143 32.0702C9.48885 34.6026 11.9283 36.8832 14.5946 38.8699C14.7146 38.9546 14.8573 39 15.0036 39C15.1498 39 15.2926 38.9546 15.4125 38.8699C18.0764 36.8828 20.5134 34.6022 22.6786 32.0702C27.4661 26.5037 30 20.6591 30 15.1666C29.9957 11.1455 28.414 7.29032 25.6019 4.44696C22.7898 1.60359 18.9769 0.00430144 15 0ZM21.625 31.097C19.6294 33.4079 17.41 35.511 15 37.3749C12.5897 35.5088 10.3703 33.4032 8.375 31.0898C5.20536 27.4083 1.42857 21.6486 1.42857 15.1666C1.42857 11.5273 2.85841 8.03699 5.40355 5.46358C7.94869 2.89017 11.4006 1.44444 15 1.44444C18.5994 1.44444 22.0513 2.89017 24.5964 5.46358C27.1416 8.03699 28.5714 11.5273 28.5714 15.1666C28.5714 21.6486 24.7946 27.4083 21.625 31.097Z" fill="#546324"/>
</svg>
