<svg width="30" height="31" viewBox="0 0 30 31" fill="none" xmlns="http://www.w3.org/2000/svg">
<path id="Vector" d="M18.7726 1.77569C18.8142 1.6104 18.9174 1.46884 19.0597 1.382C19.202 1.29516 19.3718 1.2701 19.532 1.3123C21.7448 1.90784 23.7637 3.10269 25.3805 4.77358C26.9973 6.44446 28.1533 8.53085 28.7292 10.8175C28.7701 10.9827 28.7461 11.158 28.6624 11.305C28.5786 11.452 28.442 11.5589 28.2823 11.6022C28.2315 11.6171 28.1789 11.6247 28.1261 11.6248C27.9879 11.6243 27.8537 11.5765 27.7446 11.4889C27.6354 11.4012 27.5575 11.2787 27.5229 11.1404C27.0012 9.07702 25.9569 7.19453 24.4975 5.68654C23.0382 4.17855 21.2163 3.0995 19.2195 2.56039C19.0598 2.51709 18.9232 2.41027 18.8395 2.26325C18.7557 2.11624 18.7317 1.94096 18.7726 1.77569ZM17.9694 7.72711C20.3133 8.3778 21.893 10.0102 22.5227 12.4321C22.5573 12.5703 22.6352 12.6929 22.7444 12.7805C22.8535 12.8682 22.9877 12.916 23.1259 12.9164C23.1787 12.9164 23.2313 12.9088 23.2821 12.8938C23.442 12.8495 23.5783 12.7415 23.6612 12.5935C23.7441 12.4455 23.7668 12.2696 23.7243 12.1043C22.9743 9.19801 21.0914 7.26049 18.282 6.47903C18.1258 6.44783 17.964 6.47931 17.8295 6.56707C17.6951 6.65482 17.598 6.79225 17.5582 6.95135C17.5184 7.11045 17.5387 7.27926 17.6151 7.42339C17.6915 7.56753 17.8182 7.67614 17.9694 7.72711ZM29.9918 23.6665C29.7324 25.6991 28.7655 27.5647 27.2719 28.9143C25.7782 30.264 23.86 31.0054 21.8758 31C9.81289 31 1.75588e-05 20.8603 1.75588e-05 8.39556C-0.00409383 6.34611 0.713932 4.36521 2.01998 2.82282C3.32603 1.28044 5.13079 0.282059 7.09716 0.0141642C7.5 -0.0364424 7.90786 0.0493608 8.25949 0.258689C8.61112 0.468017 8.88754 0.78957 9.04723 1.17506L12.3442 8.78629C12.4675 9.08142 12.5177 9.4036 12.4904 9.72379C12.4632 10.044 12.3592 10.3521 12.188 10.6205C12.1739 10.6415 12.1598 10.6625 12.1442 10.6818L8.8316 14.7522C8.77962 14.8414 8.74984 14.9425 8.74493 15.0465C8.74002 15.1504 8.76014 15.2541 8.80347 15.348C10.0285 17.9395 12.6552 20.6326 15.1928 21.8985C15.2844 21.9424 15.3851 21.9623 15.486 21.9564C15.5868 21.9504 15.6847 21.9189 15.7709 21.8646L19.657 18.4545L19.7164 18.4077C19.9764 18.2302 20.2752 18.1225 20.5857 18.0943C20.8962 18.0661 21.2085 18.1183 21.4946 18.2462L28.873 21.6627C29.2423 21.8288 29.5501 22.1133 29.7508 22.4742C29.9514 22.8351 30.0343 23.2531 29.9871 23.6665H29.9918ZM28.3745 22.8398L20.993 19.4233C20.9033 19.3844 20.806 19.368 20.709 19.3756C20.612 19.3832 20.5182 19.4145 20.4352 19.4669L16.5631 22.8769L16.5053 22.9221C16.2361 23.1079 15.9249 23.2184 15.6021 23.243C15.2793 23.2677 14.9558 23.2055 14.6631 23.0626C11.8505 21.6595 9.05192 18.7871 7.69406 15.9148C7.5544 15.6146 7.49197 15.2824 7.51277 14.9501C7.53357 14.6178 7.63691 14.2966 7.81281 14.0176C7.82687 13.995 7.8425 13.9756 7.85812 13.9546L11.1692 9.88583C11.2188 9.79863 11.2479 9.70059 11.2542 9.59963C11.2604 9.49867 11.2436 9.3976 11.2051 9.30458L7.90188 1.69335C7.85533 1.57536 7.77605 1.47423 7.67401 1.40269C7.57196 1.33115 7.45172 1.2924 7.32842 1.29131C7.30344 1.28971 7.27839 1.28971 7.25341 1.29131C5.58812 1.51931 4.06021 2.36623 2.95533 3.67373C1.85044 4.98122 1.24425 6.65978 1.25006 8.39556C1.25006 20.1466 10.5035 29.7083 21.8758 29.7083C23.5557 29.7143 25.1801 29.0879 26.4455 27.9462C27.7108 26.8046 28.5304 25.2257 28.7511 23.505C28.7655 23.3665 28.7361 23.2268 28.6674 23.1069C28.5987 22.987 28.4943 22.8933 28.3698 22.8398H28.3745Z" fill="#546324"/>
</svg>
