<svg width="30" height="30" viewBox="0 0 30 30" fill="none" xmlns="http://www.w3.org/2000/svg">
<path id="Vector" d="M15 0C23.2845 0 30 6.7155 30 15C30 23.2845 23.2845 30 15 30C12.3492 30.0043 9.745 29.3027 7.45502 27.9675L0.0060211 30L2.03402 22.548C0.69766 20.2573 -0.00440756 17.652 2.08204e-05 15C2.08204e-05 6.7155 6.71552 0 15 0ZM9.88802 7.95L9.58801 7.962C9.3938 7.97382 9.20398 8.02485 9.03001 8.11199C8.8673 8.20414 8.71876 8.31933 8.58902 8.45399C8.40902 8.6235 8.30702 8.77049 8.19752 8.91299C7.6427 9.63435 7.34398 10.52 7.34852 11.43C7.35152 12.165 7.54352 12.8805 7.84352 13.5495C8.45702 14.9025 9.46651 16.335 10.7985 17.6625C11.1195 17.982 11.4345 18.303 11.7735 18.6015C13.4286 20.0587 15.4009 21.1095 17.5335 21.6705L18.3855 21.801C18.663 21.816 18.9405 21.795 19.2195 21.7815C19.6564 21.7589 20.0829 21.6406 20.469 21.435C20.6654 21.3338 20.8571 21.2237 21.0435 21.105C21.0435 21.105 21.108 21.063 21.231 20.97C21.4335 20.82 21.558 20.7135 21.726 20.538C21.8505 20.409 21.9585 20.2575 22.041 20.085C22.158 19.8405 22.275 19.374 22.323 18.9855C22.359 18.6885 22.3485 18.5265 22.344 18.426C22.338 18.2655 22.2045 18.099 22.059 18.0285L21.186 17.637C21.186 17.637 19.881 17.0685 19.083 16.7055C18.9995 16.669 18.91 16.6482 18.819 16.644C18.7164 16.6334 18.6127 16.645 18.5149 16.6779C18.4171 16.7107 18.3275 16.7641 18.252 16.8345C18.2445 16.8315 18.144 16.917 17.0595 18.231C16.9973 18.3146 16.9115 18.3778 16.8132 18.4126C16.7149 18.4473 16.6085 18.452 16.5075 18.426C16.4098 18.3998 16.3141 18.3667 16.221 18.327C16.035 18.249 15.9705 18.219 15.843 18.165C14.9821 17.7893 14.185 17.2817 13.4805 16.6605C13.2915 16.4955 13.116 16.3155 12.936 16.1415C12.3459 15.5763 11.8316 14.937 11.406 14.2395L11.3175 14.097C11.2539 14.0012 11.2026 13.8979 11.1645 13.7895C11.1075 13.569 11.256 13.392 11.256 13.392C11.256 13.392 11.6205 12.993 11.79 12.777C11.955 12.567 12.0945 12.363 12.1845 12.2175C12.3615 11.9325 12.417 11.64 12.324 11.4135C11.904 10.3875 11.469 9.36599 11.022 8.35199C10.9335 8.15099 10.671 8.00699 10.4325 7.97849C10.3515 7.96949 10.2705 7.96049 10.1895 7.95449C9.98807 7.94449 9.78622 7.94649 9.58501 7.9605L9.88651 7.94849L9.88802 7.95Z" fill="#79835E"/>
</svg>
